/* XPM */
static char *stone_micro_xpm[] = {
"8 8 4 1",
"a c #470044",
"b c #6f0172",
"c c #6c007d",
"d c #7b00ff",
"abcdcbaa",
"bcadcbab",
"cadbcabc",
"dbcabcad",
"cabcdcac",
"bcdcacbb",
"cdabcabc",
"abcdcbaa"
};